<svg id="Layer_1" data-name="Layer 1" xmlns="http://www.w3.org/2000/svg" xmlns:xlink="http://www.w3.org/1999/xlink" viewBox="0 0 1195.91 340.49"><defs><style>.cls-1,.cls-11{fill:#001b2d;}.cls-11,.cls-2{font-size:103.85px;font-family:Quicksand-Light, Quicksand;font-weight:300;}.cls-2{fill:#fff;}.cls-3{letter-spacing:-0.01em;}.cls-4{letter-spacing:0em;}.cls-5{letter-spacing:-0.02em;}.cls-6{letter-spacing:-0.04em;}.cls-7{letter-spacing:0em;}.cls-8{fill:url(#linear-gradient);}.cls-9{fill:url(#linear-gradient-2);}.cls-10{fill:#f9f9f9;}.cls-12{fill:url(#linear-gradient-3);}.cls-13{fill:url(#linear-gradient-4);}</style><linearGradient id="linear-gradient" x1="314.65" y1="82.75" x2="193.38" y2="204.02" gradientUnits="userSpaceOnUse"><stop offset="0" stop-color="#0c394a"/><stop offset="0.09" stop-color="#13434b"/><stop offset="0.24" stop-color="#255e4c"/><stop offset="0.44" stop-color="#428b4f"/><stop offset="0.67" stop-color="#6bc753"/><stop offset="0.7" stop-color="#70cf54"/><stop offset="1" stop-color="#c1d53d"/></linearGradient><linearGradient id="linear-gradient-2" x1="187.24" y1="126.3" x2="410.72" y2="126.3" gradientUnits="userSpaceOnUse"><stop offset="0" stop-color="#c3f660"/><stop offset="0.04" stop-color="#baf25f"/><stop offset="0.1" stop-color="#a0e75d"/><stop offset="0.18" stop-color="#77d659"/><stop offset="0.2" stop-color="#6ed258"/><stop offset="0.29" stop-color="#5ece64"/><stop offset="0.43" stop-color="#3bc480"/><stop offset="0.55" stop-color="#28aab8"/><stop offset="0.61" stop-color="#1e9cd7"/><stop offset="0.8" stop-color="#583bf0"/><stop offset="0.87" stop-color="#7945f5"/><stop offset="1" stop-color="#b757ff"/></linearGradient><linearGradient id="linear-gradient-3" x1="912.6" y1="82.75" x2="791.33" y2="204.02" xlink:href="#linear-gradient"/><linearGradient id="linear-gradient-4" x1="785.19" y1="126.3" x2="1008.67" y2="126.3" xlink:href="#linear-gradient-2"/></defs><title>logos</title><rect class="cls-1" width="597.95" height="340.49"/><text class="cls-2" transform="translate(35.79 296.21) scale(0.82 0.93)"><tspan class="cls-3">A</tspan><tspan class="cls-4" x="66.36" y="0">U</tspan><tspan class="cls-3" x="140.62" y="0">R</tspan><tspan x="208.53" y="0">OR</tspan><tspan class="cls-5" x="357.25" y="0">AW</tspan><tspan class="cls-6" x="521.23" y="0">A</tspan><tspan class="cls-7" x="584.17" y="0">Y</tspan></text><path class="cls-8" d="M316.17,132c-10.23,1.72-21.7,2.74-34,5.85-45.78,11.56-75.13,44.73-94.35,63.91l25.41-68.39,55.1-33.64,43.86-.69Z"/><path class="cls-9" d="M374.25,198.52c-3.94,1.44-13.2,4.8-22.93,1.25-7.34-2.67-11.71-8.1-16.33-14-6.41-8.14-9.68-15.49-12.68-22.53-14.25-33.45-13.39-36.63-19.15-42.1-9.41-8.91-25.6-5.85-35.27-3.57-4.16,1-19.58,6.51-40.78,26.78a172.64,172.64,0,0,0-39.3,57.39c-3.06-31.66,6.91-64.44,11.63-76.35,3.78-9.52,13.35-29,28.79-43.6,20.58-19.52,40.52-26.59,52.48-29.46a51.72,51.72,0,0,1,41.2,7c7.78,5.12,12.88,13.93,13.3,14.67a37.49,37.49,0,0,1,3.53,8.5c1,4.3,1.93,7.46,2.07,8.25,2.73,15.18,9,50.16,25,57.5,16.25,7.46,40.95-14.4,44.92-18C406.8,164.92,392.81,191.79,374.25,198.52Z"/><rect class="cls-10" x="597.95" width="597.95" height="340.49"/><text class="cls-11" transform="translate(633.75 296.21) scale(0.82 0.93)"><tspan class="cls-3">A</tspan><tspan class="cls-4" x="66.36" y="0">U</tspan><tspan class="cls-3" x="140.62" y="0">R</tspan><tspan x="208.53" y="0">OR</tspan><tspan class="cls-5" x="357.25" y="0">AW</tspan><tspan class="cls-6" x="521.23" y="0">A</tspan><tspan class="cls-7" x="584.17" y="0">Y</tspan></text><path class="cls-12" d="M914.13,132c-10.23,1.72-21.7,2.74-34,5.85-45.78,11.56-75.13,44.73-94.35,63.91l25.41-68.39,55.1-33.64,43.86-.69Z"/><path class="cls-13" d="M972.21,198.52c-4,1.44-13.21,4.8-22.94,1.25-7.34-2.67-11.71-8.1-16.33-14-6.41-8.14-9.68-15.49-12.68-22.53-14.25-33.45-13.39-36.63-19.15-42.1-9.41-8.91-25.6-5.85-35.27-3.57-4.15,1-19.58,6.51-40.77,26.78a172.63,172.63,0,0,0-39.31,57.39c-3.06-31.66,6.91-64.44,11.63-76.35,3.78-9.52,13.35-29,28.79-43.6,20.59-19.52,40.52-26.59,52.48-29.46a51.76,51.76,0,0,1,41.21,7c7.77,5.12,12.88,13.93,13.29,14.67a37.49,37.49,0,0,1,3.53,8.5c1,4.3,1.93,7.46,2.07,8.25,2.73,15.18,9,50.16,25,57.5,16.25,7.46,41-14.4,44.92-18C1004.75,164.92,990.76,191.79,972.21,198.52Z"/></svg>