<svg id="Layer_1" data-name="Layer 1" xmlns="http://www.w3.org/2000/svg" viewBox="0 0 1270 395"><defs><style>.cls-1{fill:#ff0;}.cls-2{fill:#2a2081;}.cls-3{fill:#15123b;}.cls-4{fill:#0a1124;}.cls-5{fill:#e4e5ec;}.cls-6{fill:#9c5ea9;}.cls-7{fill:#a01765;}.cls-8{fill:#fff;}.cls-9{font-size:30px;font-family:TitilliumWeb-Regular, Titillium Web;}.cls-10{letter-spacing:0em;}.cls-11{letter-spacing:-0.01em;}.cls-12{letter-spacing:0em;}.cls-13{letter-spacing:-0.07em;}.cls-14{fill:#212121;}</style></defs><title>colors</title><rect class="cls-1" y="73" width="400" height="300"/><rect class="cls-1" x="435" y="73" width="400" height="300"/><rect class="cls-1" x="870" y="73" width="400" height="300"/><rect class="cls-2" y="73" width="400" height="100"/><rect class="cls-3" y="173" width="400" height="100"/><rect class="cls-4" y="273" width="400" height="100"/><rect class="cls-5" x="435" y="73" width="400" height="100"/><rect class="cls-6" x="435" y="173" width="400" height="100"/><rect class="cls-7" x="435" y="273" width="400" height="100"/><rect class="cls-8" x="872.5" y="75.5" width="395" height="102"/><path class="cls-5" d="M1265,78v97H875V78h390m5-5H870V180h400V73Z"/><rect x="870" y="273" width="400" height="100"/><text class="cls-9" transform="translate(99.1 44.4)">Primary pall<tspan class="cls-10" x="151" y="0">e</tspan><tspan x="166.1" y="0">tte</tspan></text><text class="cls-9" transform="translate(518.1 44.4)">Se<tspan class="cls-11" x="31.4" y="0">c</tspan><tspan class="cls-12" x="44.3" y="0">ondary pall</tspan><tspan class="cls-10" x="183.3" y="0">e</tspan><tspan x="198.4" y="0">tte</tspan></text><text class="cls-9" transform="translate(989.1 44.4)"><tspan class="cls-13">T</tspan><tspan x="13.7" y="0">ype pall</tspan><tspan class="cls-10" x="110.5" y="0">e</tspan><tspan x="125.5" y="0">tte</tspan></text><rect class="cls-14" x="870" y="173" width="400" height="100"/></svg>