<?xml version="1.0" encoding="utf-8"?>
<!-- Generator: Adobe Illustrator 24.0.3, SVG Export Plug-In . SVG Version: 6.00 Build 0)  -->
<svg version="1.1" id="Layer_1" xmlns="http://www.w3.org/2000/svg" xmlns:xlink="http://www.w3.org/1999/xlink" x="0px" y="0px"
	 viewBox="0 0 1112.7 602.7" style="enable-background:new 0 0 1112.7 602.7;" xml:space="preserve">
<style type="text/css">
	.st0{fill:#FFFFFF;}
	.st1{font-family:'Montserrat-ExtraLight';}
	.st2{font-size:72px;}
	.st3{fill:none;stroke:#FFFFFF;stroke-width:10;stroke-linecap:round;stroke-linejoin:round;stroke-miterlimit:10;}
	.st4{fill:none;stroke:#FFFFFF;stroke-width:10;stroke-linecap:round;stroke-miterlimit:10;}
	.st5{fill:none;stroke:#FFFFFF;stroke-width:19;stroke-linecap:round;stroke-linejoin:round;stroke-miterlimit:10;}
	.st6{fill:none;stroke:#FFFFFF;stroke-width:4;stroke-miterlimit:10;}
</style>
<text transform="matrix(1 0 0 1 288.7391 469.2614)" class="st0 st1 st2">UX DESIGNER</text>
<path class="st3" d="M24.4,287.8c32.7,17,61.5,23,80.1,25.4c29.5,3.8,66.4,8.4,89.9-13.8c9.7-9.2,22-27.6,16.1-43.2
	c-2.9-7.8-10.6-15.6-19.6-16.1c-14.8-0.9-24.4,18.3-25.9,21.3c-8.2,16.4-3.8,32.8-1.7,40.3c2.3,8.5,6.9,25.7,23.1,35.2
	c2.8,1.6,13.6,7.5,27.1,5.8c33.3-4.1,53.7-49.8,55.9-54.8c7.6-17.5,26.4-48.4,27.7-49.6c2.5-2.3,6.1-5.4,9.2-4.6
	c4.9,1.2,7.2,28.3,7.5,39.2c0.6,23.7-2.1,63.3,0,64c3.1,1,7.3-4.4,9.2-6.9c9.6-12.7,20.3-36.3,40.9-70.3c1.1-1.9,4.7-7.7,11.5-10.9
	c2.3-1.1,6.3-2.9,10.9-1.7c5.8,1.5,8.6,6.4,9.2,7.5c2.3,4.1,2.3,8.2,2.3,9.8c-0.3,17.6-2.3,58.2-2.3,58.2c-0.6,12-0.2,14.5,1.2,15
	c4.7,1.7,17.8-22.3,24.8-35.2c7.8-14.3,28.6-49.2,34.6-53c2.3-1.5,9.8-6.3,17.3-3.5c7.6,2.8,10.1,11.4,10.9,14.4
	c1.8,6.2,0.9,10.8,0,17.3c-1.9,13.7-3.5,25.9-1.2,37.5c1.4,6.9,3.7,18.2,12.1,22.5c12.7,6.5,30.9-7.5,36.9-12.1
	c3.8-2.9,17.7-14.2,27.8-39c10.5-25.9,10.4-50.8,9.7-50.9c-0.8-0.1-6,35.5-5.2,64.5c0.1,1.9,0.2,5.4,1.2,9.8
	c2.9,13.2,12.2,29.2,24.2,32.9c11,3.4,23.9-3.7,39.2-17.9c26.2-24.2,37.1-40.8,79.1-172.6c0,0,19.4-61.7,15.4-95.3
	c-2.2-18.7-6.3-31.2-18.6-32.3c-11.6-1-22,19.1-26.4,27.7c-12.9,25.5-17.9,53.3-19.6,115.3c-1.2,42.6,5.4,122.1,27.1,163.1
	c0.8,1.6,2.7,4.9,6.3,7.5c13,9.1,34.6-1.5,37.5-2.9c39.8-19.4,44.9-101.4,45-101.4c0.1,0-7.2,32.2-4.6,68c1,14.5,3.3,24.3,10.9,31.7
	c7.1,6.9,17.9,10.9,28.2,9.3c6.2-1,14.2-4.3,29.4-24.8c8.4-11.3,18.8-31.8,28.1-55.6"/>
<path class="st4" d="M867.3,306.5c2.1,0.2,25.1,2.5,39.4-14.7c1.4-1.7,14.5-18.1,8.1-35.7c-0.5-1.3-5.8-15.3-17.3-17.3
	c-13.8-2.4-26.6,14-31.6,25.5c-10.3,23.7,3.8,47.3,5.1,49.4c12.1,19.6,32.9,25.8,43.2,28.9c67.8,20.3,159.6-46.2,171.2-54.8"/>
<line class="st5" x1="569.3" y1="172.3" x2="569.3" y2="175.3"/>
<line class="st5" x1="774" y1="173.8" x2="774" y2="176.9"/>
<polyline class="st6" points="620.6,63.6 91.3,63.6 91.3,267.3 "/>
<polyline class="st6" points="91.3,359.4 91.3,580.6 1006.3,580.6 1006.3,399.1 "/>
<polyline class="st6" points="1006.3,267.3 1006.3,63.6 774,63.6 "/>
</svg>
