<svg id="Layer_1" data-name="Layer 1" xmlns="http://www.w3.org/2000/svg" viewBox="0 0 1112.66 602.65"><defs><style>.cls-1{font-size:72px;font-family:Montserrat-ExtraLight, Montserrat;font-weight:200;}.cls-2{letter-spacing:-0.01em;}.cls-3,.cls-4,.cls-5,.cls-6{fill:none;stroke:#000;}.cls-3,.cls-4,.cls-5{stroke-linecap:round;}.cls-3,.cls-5{stroke-linejoin:round;}.cls-3,.cls-4{stroke-width:10px;}.cls-4,.cls-6{stroke-miterlimit:10;}.cls-5{stroke-width:19px;}.cls-6{stroke-width:4px;}</style></defs><title>personliglogo</title><text class="cls-1" transform="translate(288.74 469.26)"><tspan class="cls-2">U</tspan><tspan x="56.38" y="0">X DESIGNER</tspan></text><path class="cls-3" d="M24.36,287.84a237.8,237.8,0,0,0,80.1,25.36c29.54,3.75,66.4,8.44,89.9-13.83,9.74-9.23,22-27.61,16.14-43.22-2.91-7.79-10.58-15.58-19.59-16.14-14.85-.92-24.43,18.3-25.94,21.33-8.15,16.35-3.75,32.78-1.73,40.34,2.27,8.46,6.89,25.71,23.06,35.15,2.79,1.63,13.55,7.48,27.08,5.83,33.26-4.06,53.73-49.81,55.9-54.82,7.6-17.52,26.38-48.42,27.66-49.56,2.55-2.25,6.09-5.39,9.22-4.61,4.93,1.23,7.22,28.33,7.5,39.19.6,23.71-2.15,63.3,0,64,3.1,1,7.33-4.42,9.22-6.92,9.6-12.73,20.27-36.32,40.91-70.3a27.64,27.64,0,0,1,11.53-11c2.31-1.1,6.26-2.91,10.95-1.73,5.76,1.45,8.59,6.4,9.22,7.49a18.75,18.75,0,0,1,2.3,9.8c-.25,17.56-2.3,58.2-2.3,58.2-.61,12-.18,14.51,1.15,15,4.69,1.68,17.78-22.33,24.78-35.16,7.79-14.29,28.61-49.18,34.58-53,2.3-1.48,9.75-6.26,17.29-3.45s10.07,11.39,10.95,14.4c1.79,6.17.87,10.81,0,17.29-1.86,13.74-3.51,25.95-1.16,37.46,1.4,6.86,3.72,18.19,12.11,22.48,12.7,6.49,30.86-7.48,36.88-12.11,3.81-2.93,17.74-14.22,27.76-39,10.46-25.86,10.35-50.84,9.7-50.94s-6,35.47-5.19,64.55a49.31,49.31,0,0,0,1.15,9.79C568.42,323,577.68,339,589.7,342.66c11,3.37,23.85-3.75,39.18-17.93C655,300.54,666,283.9,707.94,152.14c0,0,19.38-61.72,15.44-95.35-2.2-18.74-6.32-31.21-18.55-32.31-11.6-1-22,19.07-26.38,27.66-12.9,25.48-17.88,53.34-19.6,115.26-1.18,42.61,5.4,122.08,27.09,163.09a20.44,20.44,0,0,0,6.34,7.49c13,9.08,34.55-1.46,37.46-2.88,39.78-19.44,44.85-101.45,45-101.43s-7.18,32.22-4.61,68c1,14.49,3.3,24.27,10.94,31.69,7.07,6.86,17.93,10.92,28.24,9.29,6.19-1,14.23-4.33,29.39-24.85,8.36-11.3,18.8-31.77,28.14-55.58"/><path class="cls-4" d="M867.25,306.55c2.08.24,25.11,2.49,39.41-14.67,1.38-1.67,14.52-18.06,8.06-35.73-.48-1.34-5.83-15.26-17.28-17.29-13.76-2.44-26.63,14-31.63,25.47-10.31,23.7,3.78,47.29,5.12,49.45,12.12,19.58,32.87,25.78,43.22,28.88,67.77,20.26,159.57-46.24,171.16-54.82"/><line class="cls-5" x1="569.26" y1="172.32" x2="569.26" y2="175.34"/><line class="cls-5" x1="774.02" y1="173.83" x2="774.02" y2="176.85"/><polyline class="cls-6" points="620.61 63.62 91.33 63.62 91.33 267.33"/><polyline class="cls-6" points="91.33 359.44 91.33 580.62 1006.34 580.62 1006.34 399.11"/><polyline class="cls-6" points="1006.34 267.33 1006.34 63.62 774.02 63.62"/></svg>