<?xml version="1.0" encoding="utf-8"?>
<!-- Generator: Adobe Illustrator 24.0.3, SVG Export Plug-In . SVG Version: 6.00 Build 0)  -->
<svg version="1.1" id="Layer_1" xmlns="http://www.w3.org/2000/svg" xmlns:xlink="http://www.w3.org/1999/xlink" x="0px" y="0px"
	 viewBox="0 0 1270 395" style="enable-background:new 0 0 1270 395;" xml:space="preserve">
<style type="text/css">
	.st0{fill:#FFFF00;}
	.st1{fill:#324C69;}
	.st2{fill:#2B2E32;}
	.st3{fill:#1D1D1D;}
	.st4{fill:#CC698F;}
	.st5{fill:#093C1A;}
	.st6{fill:#007184;}
	.st7{fill:#FE9937;}
	.st8{fill:#8AA075;}
	.st9{fill:#928A00;}
	.st10{fill:#FFFFFF;}
	.st11{fill:#E4E5EC;}
	.st12{fill:#CBCBCB;}
	.st13{font-family:'TitilliumWeb-Regular';}
	.st14{font-size:30px;}
	.st15{letter-spacing:-2;}
	.st16{fill:#808080;}
</style>
<rect y="73" class="st0" width="400" height="300"/>
<rect x="435" y="73" class="st0" width="400" height="300"/>
<rect x="870" y="73" class="st0" width="400" height="300"/>
<rect y="73" class="st1" width="400" height="100"/>
<rect y="173" class="st2" width="400" height="100"/>
<rect y="273" class="st3" width="400" height="100"/>
<rect x="434.8" y="73" class="st4" width="200.2" height="100"/>
<rect x="434.8" y="173" class="st5" width="200.2" height="100"/>
<rect x="634.9" y="73" class="st6" width="200.2" height="100"/>
<rect x="635" y="273" class="st7" width="200" height="100"/>
<rect x="434.9" y="273" class="st8" width="200" height="100"/>
<rect x="635" y="173" class="st9" width="200" height="100"/>
<rect x="872.5" y="75.5" class="st10" width="395" height="102"/>
<path class="st11" d="M1265,78v97H875V78H1265 M1270,73H870v107h400V73z"/>
<rect x="870" y="173" class="st12" width="400" height="100"/>
<text transform="matrix(1 0 0 1 99.1 44.4)" class="st13 st14">Primary pall</text>
<text transform="matrix(1 0 0 1 250.1 44.4)" class="st13 st14">e</text>
<text transform="matrix(1 0 0 1 265.2 44.4)" class="st13 st14">tte</text>
<text transform="matrix(1 0 0 1 518.1 44.4)" class="st13 st14">Se</text>
<text transform="matrix(1 0 0 1 549.5 44.4)" class="st13 st14">c</text>
<text transform="matrix(1 0 0 1 562.4 44.4)" class="st13 st14">ondary pall</text>
<text transform="matrix(1 0 0 1 701.4 44.4)" class="st13 st14">e</text>
<text transform="matrix(1 0 0 1 716.5 44.4)" class="st13 st14">tte</text>
<text transform="matrix(1 0 0 1 989.1 44.4)" class="st13 st14 st15">T</text>
<text transform="matrix(1 0 0 1 1002.8 44.4)" class="st13 st14">ype pall</text>
<text transform="matrix(1 0 0 1 1099.6 44.4)" class="st13 st14">e</text>
<text transform="matrix(1 0 0 1 1114.6 44.4)" class="st13 st14">tte</text>
<rect x="870" y="273" class="st16" width="400" height="100"/>
</svg>
